<svg class="svg-icon" style="width: 1em; height: 1em;vertical-align: middle;fill: currentColor;overflow: hidden;" viewBox="0 0 1024 1024" version="1.1" xmlns="http://www.w3.org/2000/svg"><path d="M538.434046 617.504916c0 3.687996-1.403976 7.356548-4.211928 10.1645-5.615904 5.615904-14.713097 5.615904-20.329001 0L364.187513 476.931297c-5.615904-5.615904-5.615904-14.713097 0-20.329001 5.615904-5.615904 14.713097-5.615904 20.329001 0l149.705604 150.739143C537.03007 610.148367 538.434046 613.817943 538.434046 617.504916z"  /><path d="M689.172165 466.767819c0 3.687996-1.403976 7.356548-4.211928 10.1645L534.222117 627.670439c-5.615904 5.615904-14.713097 5.615904-20.329001 0-5.615904-5.615904-5.615904-14.713097 0-20.329001L664.631236 456.603319c5.615904-5.615904 14.713097-5.615904 20.329001 0C687.768189 459.411271 689.172165 463.079824 689.172165 466.767819z"  /></svg>