<svg class="svg-icon" style="width: 1em;height: 1em;vertical-align: middle;fill: currentColor;overflow: hidden;" viewBox="0 0 1024 1024" version="1.1" xmlns="http://www.w3.org/2000/svg"><path d="M919.194 500.382l-395.16-388.45c-6.649-6.536-17.419-6.536-24.068 0l-395.16 388.45a16.524 16.524 0 0 0 0 23.659c3.324 3.268 7.679 4.902 12.034 4.902s8.71-1.634 12.034-4.902l370.151-363.866v740.062c0 9.24 7.621 16.731 17.02 16.731s17.02-7.492 17.02-16.731V168.13l362.06 355.911c3.324 3.268 7.679 4.902 12.034 4.902s8.71-1.634 12.034-4.902a16.523 16.523 0 0 0 0.001-23.659z" fill="#555555" /></svg>